<svg width="91" height="21" viewBox="0 0 91 21" fill="none" xmlns="http://www.w3.org/2000/svg">
<path d="M5.5897 16.2816C4.50715 16.2816 3.45801 16.1296 2.44227 15.8255C1.43991 15.5214 0.644696 15.1181 0.0566406 14.6156L0.958771 12.6125C1.53346 13.062 2.23512 13.4323 3.06374 13.7231C3.90573 14.0008 4.74772 14.1396 5.5897 14.1396C6.63217 14.1396 7.40733 13.9744 7.9152 13.6438C8.43643 13.3133 8.69704 12.8769 8.69704 12.3348C8.69704 11.9381 8.55003 11.6142 8.256 11.363C7.97534 11.0985 7.61449 10.8936 7.17344 10.7481C6.7324 10.6027 6.13098 10.4374 5.36918 10.2523C4.29999 10.0011 3.43128 9.74986 2.76303 9.49864C2.10815 9.24742 1.54014 8.85736 1.05901 8.32847C0.591236 7.78636 0.357351 7.05914 0.357351 6.14681C0.357351 5.37992 0.564506 4.68575 0.978818 4.06431C1.40649 3.42964 2.04133 2.92719 2.88332 2.55697C3.73867 2.18675 4.78113 2.00164 6.0107 2.00164C6.86605 2.00164 7.70804 2.10742 8.53666 2.31897C9.36529 2.53053 10.0803 2.83464 10.6817 3.23131L9.85979 5.23447C9.245 4.87747 8.60349 4.60642 7.93524 4.42131C7.267 4.23619 6.6188 4.14364 5.99065 4.14364C4.96156 4.14364 4.19307 4.31553 3.68521 4.65931C3.19071 5.00308 2.94346 5.45925 2.94346 6.02781C2.94346 6.42447 3.08379 6.74842 3.36445 6.99964C3.65848 7.25086 4.02601 7.4492 4.46705 7.59464C4.9081 7.74008 5.50952 7.90536 6.27131 8.09047C7.31378 8.32847 8.16913 8.5797 8.83737 8.84414C9.50562 9.09536 10.0736 9.48542 10.5414 10.0143C11.0225 10.5432 11.2631 11.2572 11.2631 12.1563C11.2631 12.9232 11.0493 13.6174 10.6216 14.2388C10.2073 14.8603 9.57244 15.3561 8.71709 15.7263C7.86174 16.0965 6.81927 16.2816 5.5897 16.2816Z" fill="white"/>
<path d="M13.6068 5.49231H16.1127V16.0833H13.6068V5.49231ZM14.8697 3.74697C14.4153 3.74697 14.0344 3.60814 13.727 3.33047C13.4197 3.03958 13.266 2.68258 13.266 2.25947C13.266 1.83636 13.4197 1.48597 13.727 1.20831C14.0344 0.917417 14.4153 0.771973 14.8697 0.771973C15.3241 0.771973 15.705 0.910806 16.0124 1.18847C16.3198 1.45292 16.4735 1.79008 16.4735 2.19997C16.4735 2.63631 16.3198 3.00653 16.0124 3.31064C15.7184 3.60153 15.3375 3.74697 14.8697 3.74697Z" fill="white"/>
<path d="M22.7095 16.2221C21.8408 16.2221 20.9921 16.1098 20.1635 15.885C19.3349 15.6602 18.6733 15.3759 18.1788 15.0321L19.1411 13.148C19.6222 13.4653 20.1969 13.7231 20.8651 13.9215C21.5468 14.1066 22.215 14.1991 22.8699 14.1991C24.3667 14.1991 25.1152 13.8091 25.1152 13.029C25.1152 12.6588 24.9214 12.4009 24.5338 12.2555C24.1596 12.11 23.5515 11.9712 22.7095 11.839C21.8274 11.7068 21.1057 11.5547 20.5444 11.3828C19.9964 11.2109 19.5153 10.9134 19.101 10.4903C18.7 10.054 18.4996 9.45236 18.4996 8.68547C18.4996 7.68058 18.9206 6.88064 19.7625 6.28564C20.6179 5.67742 21.7673 5.37331 23.2107 5.37331C23.9458 5.37331 24.6808 5.45925 25.4159 5.63114C26.151 5.78981 26.7524 6.00797 27.2202 6.28564L26.2579 8.16981C25.3491 7.64092 24.3267 7.37647 23.1906 7.37647C22.4556 7.37647 21.8942 7.48886 21.5067 7.71364C21.1324 7.9252 20.9453 8.20947 20.9453 8.56647C20.9453 8.96314 21.1458 9.24742 21.5468 9.41931C21.9611 9.57797 22.5959 9.73003 23.4513 9.87547C24.3066 10.0077 25.0083 10.1598 25.5562 10.3316C26.1042 10.5035 26.572 10.7944 26.9595 11.2043C27.3605 11.6142 27.561 12.196 27.561 12.9496C27.561 13.9413 27.1266 14.7346 26.2579 15.3296C25.3892 15.9246 24.2064 16.2221 22.7095 16.2221Z" fill="white"/>
<path d="M39.5469 5.49231L34.5351 16.9361C34.0673 18.0865 33.4993 18.893 32.8311 19.3558C32.1628 19.8318 31.3542 20.0698 30.4053 20.0698C29.8707 20.0698 29.3428 19.9839 28.8216 19.812C28.3004 19.6401 27.8727 19.4021 27.5386 19.098L28.5409 17.2733C28.7815 17.4981 29.0622 17.6766 29.3829 17.8088C29.717 17.941 30.0512 18.0071 30.3853 18.0071C30.8263 18.0071 31.1872 17.8948 31.4678 17.67C31.7619 17.4452 32.0292 17.0684 32.2697 16.5395L32.4502 16.123L27.7791 5.49231H30.3853L33.7532 13.3265L37.1412 5.49231H39.5469Z" fill="white"/>
<path d="M47.0471 5.37331C48.0896 5.37331 49.0184 5.59808 49.8337 6.04764C50.6623 6.4972 51.3105 7.13186 51.7783 7.95164C52.2461 8.77142 52.48 9.71681 52.48 10.7878C52.48 11.8588 52.2461 12.8108 51.7783 13.6438C51.3105 14.4636 50.6623 15.0983 49.8337 15.5478C49.0184 15.9974 48.0896 16.2221 47.0471 16.2221C45.6037 16.2221 44.461 15.7461 43.619 14.7941V19.931H41.1131V5.49231H43.4987V6.88064C43.9131 6.3782 44.4209 6.00136 45.0223 5.75014C45.6371 5.49892 46.312 5.37331 47.0471 5.37331ZM46.7665 14.1C47.6886 14.1 48.4438 13.7959 49.0318 13.1876C49.6332 12.5794 49.9339 11.7795 49.9339 10.7878C49.9339 9.79614 49.6332 8.9962 49.0318 8.38797C48.4438 7.77975 47.6886 7.47564 46.7665 7.47564C46.165 7.47564 45.6238 7.61447 45.1426 7.89214C44.6615 8.15659 44.2806 8.54003 43.9999 9.04247C43.7193 9.54492 43.5789 10.1267 43.5789 10.7878C43.5789 11.4489 43.7193 12.0307 43.9999 12.5331C44.2806 13.0356 44.6615 13.4256 45.1426 13.7033C45.6238 13.9678 46.165 14.1 46.7665 14.1Z" fill="white"/>
<path d="M60.9308 5.37331C62.2807 5.37331 63.3633 5.76336 64.1785 6.54347C64.9938 7.32358 65.4014 8.48053 65.4014 10.0143V16.0833H62.8955V10.3316C62.8955 9.40609 62.675 8.71192 62.2339 8.24914C61.7929 7.77314 61.1647 7.53514 60.3495 7.53514C59.4273 7.53514 58.6989 7.81281 58.1643 8.36814C57.6297 8.91025 57.3624 9.69697 57.3624 10.7283V16.0833H54.8565V1.36697H57.3624V6.72197C57.7767 6.28564 58.2846 5.95508 58.886 5.73031C59.5008 5.49231 60.1824 5.37331 60.9308 5.37331Z" fill="white"/>
<path d="M78.9448 5.49231V16.0833H76.5592V14.7346C76.1582 15.2106 75.657 15.5809 75.0556 15.8453C74.4542 16.0965 73.806 16.2221 73.111 16.2221C71.681 16.2221 70.5516 15.8321 69.723 15.052C68.9077 14.2586 68.5001 13.0885 68.5001 11.5415V5.49231H71.006V11.2043C71.006 12.1563 71.2199 12.8703 71.6476 13.3463C72.0886 13.8091 72.7101 14.0405 73.5119 14.0405C74.4074 14.0405 75.1157 13.7694 75.637 13.2273C76.1716 12.672 76.4389 11.8786 76.4389 10.8473V5.49231H78.9448Z" fill="white"/>
<path d="M85.5336 16.2221C84.6649 16.2221 83.8162 16.1098 82.9876 15.885C82.159 15.6602 81.4974 15.3759 81.0029 15.0321L81.9652 13.148C82.4463 13.4653 83.021 13.7231 83.6893 13.9215C84.3709 14.1066 85.0391 14.1991 85.694 14.1991C87.1909 14.1991 87.9393 13.8091 87.9393 13.029C87.9393 12.6588 87.7455 12.4009 87.3579 12.2555C86.9837 12.11 86.3756 11.9712 85.5336 11.839C84.6515 11.7068 83.9298 11.5547 83.3685 11.3828C82.8205 11.2109 82.3394 10.9134 81.9251 10.4903C81.5241 10.054 81.3237 9.45236 81.3237 8.68547C81.3237 7.68058 81.7447 6.88064 82.5867 6.28564C83.442 5.67742 84.5914 5.37331 86.0348 5.37331C86.7699 5.37331 87.5049 5.45925 88.24 5.63114C88.9751 5.78981 89.5765 6.00797 90.0443 6.28564L89.082 8.16981C88.1732 7.64092 87.1508 7.37647 86.0148 7.37647C85.2797 7.37647 84.7184 7.48886 84.3308 7.71364C83.9566 7.9252 83.7695 8.20947 83.7695 8.56647C83.7695 8.96314 83.9699 9.24742 84.3709 9.41931C84.7852 9.57797 85.42 9.73003 86.2754 9.87547C87.1307 10.0077 87.8324 10.1598 88.3803 10.3316C88.9283 10.5035 89.3961 10.7944 89.7837 11.2043C90.1846 11.6142 90.3851 12.196 90.3851 12.9496C90.3851 13.9413 89.9507 14.7346 89.082 15.3296C88.2133 15.9246 87.0305 16.2221 85.5336 16.2221Z" fill="white"/>
</svg>
